<svg width="91" height="25" viewBox="0 0 91 25" fill="none" xmlns="http://www.w3.org/2000/svg">
<path d="M19.5891 15.75H21.5113C21.8143 15.75 22.1044 15.6281 22.3177 15.4121C22.5309 15.1962 22.6502 14.904 22.6502 14.6C22.6502 14.296 22.5309 14.0038 22.3177 13.7879C22.1044 13.5719 21.8143 13.45 21.5113 13.45H17.0668C16.7638 13.45 16.4738 13.5719 16.2604 13.7879C16.0472 14.0038 15.928 14.296 15.928 14.6V19.1C15.928 19.404 16.0472 19.6962 16.2604 19.9121C16.4738 20.1281 16.7638 20.25 17.0668 20.25C17.3699 20.25 17.6599 20.1281 17.8733 19.9121C18.0865 19.6962 18.2057 19.404 18.2057 19.1V17.5693C19.3116 18.4449 20.6228 19.0224 22.0164 19.2427C23.5899 19.4913 25.2009 19.2737 26.6547 18.6162C28.1086 17.9587 29.343 16.8895 30.2095 15.5382C31.076 14.1868 31.5376 12.6108 31.5391 11.0002V11C31.5391 10.696 31.4198 10.4038 31.2066 10.1879C30.9932 9.97192 30.7032 9.85 30.4002 9.85C30.0971 9.85 29.8071 9.97192 29.5938 10.1879C29.3805 10.4038 29.2613 10.696 29.2613 11V11C29.2615 12.1922 28.9139 13.3577 28.2626 14.3502C27.6114 15.3426 26.6855 16.1178 25.6015 16.579C24.5175 17.0401 23.3233 17.1669 22.1687 16.9435C21.2239 16.7607 20.3396 16.35 19.5891 15.75ZM17.3168 11L17.3168 11C17.3167 9.80778 17.6642 8.64234 18.3155 7.64983C18.9668 6.65736 19.8927 5.88217 20.9767 5.42101C22.0606 4.95986 23.2548 4.83311 24.4094 5.05651C25.3543 5.23931 26.2385 5.64997 26.989 6.25H25.0668C24.7638 6.25 24.4738 6.37192 24.2604 6.58793C24.0472 6.80383 23.928 7.096 23.928 7.4C23.928 7.704 24.0472 7.99617 24.2604 8.21207C24.4738 8.42808 24.7638 8.55 25.0668 8.55H29.5113C29.8143 8.55 30.1044 8.42808 30.3177 8.21207C30.5309 7.99617 30.6502 7.704 30.6502 7.4V2.9C30.6502 2.596 30.5309 2.30383 30.3177 2.08793C30.1044 1.87192 29.8143 1.75 29.5113 1.75C29.2082 1.75 28.9182 1.87192 28.7049 2.08793C28.4916 2.30383 28.3724 2.596 28.3724 2.9V4.43075C27.2665 3.55513 25.9553 2.97756 24.5617 2.75733C22.9882 2.50867 21.3773 2.72631 19.9234 3.38383C18.4695 4.04134 17.2351 5.11047 16.3686 6.46184C15.5021 7.81318 15.0405 9.38918 15.0391 10.9998V11C15.0391 11.304 15.1583 11.5962 15.3715 11.8121C15.5849 12.0281 15.8749 12.15 16.178 12.15C16.481 12.15 16.771 12.0281 16.9844 11.8121C17.1976 11.5962 17.3168 11.304 17.3168 11Z" fill="#394149" stroke="#394149" stroke-width="0.5"/>
<path d="M41.3262 13.8438C41.3262 13.4518 41.1211 13.1374 40.7109 12.9004C40.3008 12.6634 39.5215 12.4173 38.373 12.1621C37.2246 11.9069 36.2767 11.5742 35.5293 11.1641C34.7819 10.7448 34.2122 10.2389 33.8203 9.64648C33.4284 9.05404 33.2324 8.375 33.2324 7.60938C33.2324 6.2513 33.793 5.13477 34.9141 4.25977C36.0352 3.37565 37.5026 2.93359 39.3164 2.93359C41.2669 2.93359 42.8346 3.37565 44.0195 4.25977C45.2044 5.14388 45.7969 6.30599 45.7969 7.74609H41.1758C41.1758 6.5612 40.5514 5.96875 39.3027 5.96875C38.8197 5.96875 38.4141 6.10547 38.0859 6.37891C37.7578 6.64323 37.5938 6.97591 37.5938 7.37695C37.5938 7.78711 37.7943 8.11979 38.1953 8.375C38.5964 8.63021 39.2344 8.83984 40.1094 9.00391C40.9935 9.16797 41.7682 9.36393 42.4336 9.5918C44.6576 10.3574 45.7695 11.7292 45.7695 13.707C45.7695 15.056 45.168 16.1543 43.9648 17.002C42.7708 17.8496 41.2214 18.2734 39.3164 18.2734C38.0495 18.2734 36.9193 18.0456 35.9258 17.5898C34.9323 17.1341 34.1576 16.5143 33.6016 15.7305C33.0456 14.9466 32.7676 14.1217 32.7676 13.2559H37.0742C37.0924 13.9395 37.3203 14.4408 37.7578 14.7598C38.1953 15.0697 38.7559 15.2246 39.4395 15.2246C40.0684 15.2246 40.5378 15.097 40.8477 14.8418C41.1667 14.5866 41.3262 14.2539 41.3262 13.8438Z" fill="#394149"/>
<path d="M53.8496 11.5469L56.3105 3.20703H61.2461L55.2168 20.4746L54.957 21.1035C54.1003 23.0176 52.5872 23.9746 50.418 23.9746C49.8164 23.9746 49.1829 23.8835 48.5176 23.7012V20.4062H49.1191C49.7663 20.4062 50.2585 20.3105 50.5957 20.1191C50.9421 19.9368 51.1973 19.6042 51.3613 19.1211L51.7305 18.1367L46.5898 3.20703H51.5117L53.8496 11.5469Z" fill="#394149"/>
<path d="M66.6875 3.20703L66.8379 4.94336C67.8587 3.60352 69.2669 2.93359 71.0625 2.93359C72.6029 2.93359 73.7513 3.39388 74.5078 4.31445C75.2734 5.23503 75.6699 6.62044 75.6973 8.4707V18H71.0762V8.66211C71.0762 7.91471 70.9258 7.36784 70.625 7.02148C70.3242 6.66602 69.7773 6.48828 68.9844 6.48828C68.082 6.48828 67.4121 6.84375 66.9746 7.55469V18H62.3672V3.20703H66.6875Z" fill="#394149"/>
<path d="M84.5156 14.7188C85.1628 14.7188 85.6641 14.5456 86.0195 14.1992C86.375 13.8438 86.5482 13.3516 86.5391 12.7227H90.8594C90.8594 14.3451 90.276 15.6758 89.1094 16.7148C87.9518 17.7539 86.457 18.2734 84.625 18.2734C82.474 18.2734 80.7786 17.599 79.5391 16.25C78.2995 14.901 77.6797 13.0326 77.6797 10.6445V10.4531C77.6797 8.95833 77.9531 7.64128 78.5 6.50195C79.056 5.35352 79.8535 4.47396 80.8926 3.86328C81.9316 3.24349 83.1621 2.93359 84.584 2.93359C86.5072 2.93359 88.0339 3.4668 89.1641 4.5332C90.2943 5.59961 90.8594 7.04427 90.8594 8.86719H86.5391C86.5391 8.10156 86.3522 7.51367 85.9785 7.10352C85.6048 6.69336 85.1035 6.48828 84.4746 6.48828C83.2806 6.48828 82.5833 7.24935 82.3828 8.77148C82.319 9.25456 82.2871 9.91992 82.2871 10.7676C82.2871 12.2533 82.4648 13.2832 82.8203 13.8574C83.1758 14.4316 83.7409 14.7188 84.5156 14.7188Z" fill="#394149"/>
<path d="M6.83594 14.7188C7.48307 14.7188 7.98438 14.5456 8.33984 14.1992C8.69531 13.8438 8.86849 13.3516 8.85938 12.7227H13.1797C13.1797 14.3451 12.5964 15.6758 11.4297 16.7148C10.2721 17.7539 8.77734 18.2734 6.94531 18.2734C4.79427 18.2734 3.09896 17.599 1.85938 16.25C0.619792 14.901 0 13.0326 0 10.6445V10.4531C0 8.95833 0.273438 7.64128 0.820312 6.50195C1.3763 5.35352 2.17383 4.47396 3.21289 3.86328C4.25195 3.24349 5.48242 2.93359 6.9043 2.93359C8.82747 2.93359 10.3542 3.4668 11.4844 4.5332C12.6146 5.59961 13.1797 7.04427 13.1797 8.86719H8.85938C8.85938 8.10156 8.67253 7.51367 8.29883 7.10352C7.92513 6.69336 7.42383 6.48828 6.79492 6.48828C5.60091 6.48828 4.90365 7.24935 4.70312 8.77148C4.63932 9.25456 4.60742 9.91992 4.60742 10.7676C4.60742 12.2533 4.78516 13.2832 5.14062 13.8574C5.49609 14.4316 6.0612 14.7188 6.83594 14.7188Z" fill="#394149"/>
</svg>
