<svg width="191" height="54" viewBox="0 0 191 54" fill="none" xmlns="http://www.w3.org/2000/svg">
<path d="M36.2462 22.8503V22.8503C36.2458 20.3487 36.975 17.9032 38.3417 15.8205C39.7083 13.7379 41.6512 12.1112 43.926 11.1435C46.2007 10.1758 48.7066 9.90981 51.1296 10.3786C53.1343 10.7665 55.009 11.6432 56.595 12.9252H52.502C51.8736 12.9252 51.2722 13.178 50.8298 13.6259C50.3876 14.0737 50.1402 14.6796 50.1402 15.3102C50.1402 15.9408 50.3876 16.5467 50.8298 16.9945C51.2722 17.4424 51.8736 17.6952 52.502 17.6952H61.8108C62.4392 17.6952 63.0406 17.4424 63.483 16.9945C63.9252 16.5467 64.1726 15.9408 64.1726 15.3102V5.88503C64.1726 5.25447 63.9252 4.64851 63.483 4.20076C63.0406 3.75281 62.4392 3.5 61.8108 3.5C61.1824 3.5 60.581 3.75281 60.1386 4.20076C59.6964 4.64851 59.4491 5.25447 59.4491 5.88503V9.14007C57.128 7.29158 54.3713 6.07271 51.4404 5.60955C48.1492 5.08946 44.7798 5.54467 41.7389 6.91993C38.698 8.29516 36.116 10.5314 34.3036 13.358C32.4913 16.1845 31.5257 19.481 31.5226 22.8499V22.8503C31.5226 23.4809 31.77 24.0868 32.2122 24.5346C32.6546 24.9825 33.256 25.2354 33.8844 25.2354C34.5128 25.2354 35.1142 24.9825 35.5566 24.5346C35.9988 24.0868 36.2462 23.4809 36.2462 22.8503ZM38.1079 39.8156V36.5606C40.4289 38.4091 43.1857 39.6279 46.1166 40.0911C49.4078 40.6112 52.7772 40.156 55.8181 38.7807C58.859 37.4055 61.441 35.1693 63.2534 32.3427C65.0657 29.5161 66.0313 26.2196 66.0343 22.8508V22.8503C66.0343 22.2198 65.787 21.6138 65.3448 21.1661C64.9024 20.7181 64.301 20.4653 63.6726 20.4653C63.0442 20.4653 62.4428 20.7181 62.0004 21.1661C61.5581 21.6138 61.3108 22.2198 61.3108 22.8503L61.3108 22.8504C61.3112 25.352 60.5819 27.7975 59.2153 29.8801C57.8487 31.9627 55.9058 33.5894 53.631 34.5571C51.3563 35.5248 48.8504 35.7908 46.4274 35.322C44.4227 34.9342 42.5479 34.0575 40.9619 32.7755H45.055C45.6834 32.7755 46.2847 32.5227 46.7272 32.0747C47.1694 31.627 47.4167 31.021 47.4167 30.3905C47.4167 29.7599 47.1694 29.1539 46.7272 28.7062C46.2847 28.2582 45.6834 28.0054 45.055 28.0054H35.7462C35.1178 28.0054 34.5164 28.2582 34.074 28.7062C33.6317 29.1539 33.3844 29.7599 33.3844 30.3905V39.8156C33.3844 40.4462 33.6317 41.0521 34.074 41.4999C34.5164 41.9478 35.1178 42.2006 35.7462 42.2006C36.3746 42.2006 36.9759 41.9478 37.4184 41.4999C37.8606 41.0521 38.1079 40.4462 38.1079 39.8156Z" fill="#394149" stroke="#394149"/>
<path d="M86.5569 28.8065C86.5569 27.9856 86.1273 27.327 85.2683 26.8307C84.4092 26.3343 82.777 25.8189 80.3716 25.2843C77.9662 24.7498 75.9808 24.053 74.4154 23.194C72.85 22.3158 71.6569 21.2563 70.836 20.0154C70.0151 18.7745 69.6047 17.3523 69.6047 15.7487C69.6047 12.9043 70.7787 10.5657 73.1268 8.73304C75.4749 6.88128 78.5485 5.9554 82.3474 5.9554C86.4328 5.9554 89.7163 6.88128 92.1981 8.73304C94.6798 10.5848 95.9207 13.0188 95.9207 16.0351H86.2419C86.2419 13.5533 84.9342 12.3125 82.3188 12.3125C81.307 12.3125 80.4575 12.5988 79.7703 13.1715C79.083 13.7252 78.7394 14.422 78.7394 15.2619C78.7394 16.121 79.1594 16.8178 79.9993 17.3523C80.8393 17.8868 82.1756 18.3259 84.0083 18.6695C85.8601 19.0132 87.4827 19.4236 88.8763 19.9009C93.5344 21.5045 95.8634 24.3776 95.8634 28.5202C95.8634 31.3455 94.6034 33.6459 92.0835 35.4213C89.5827 37.1967 86.3373 38.0844 82.3474 38.0844C79.6939 38.0844 77.3267 37.6071 75.2458 36.6526C73.165 35.6981 71.5423 34.4 70.3778 32.7582C69.2133 31.1164 68.6311 29.3888 68.6311 27.5752H77.6512C77.6894 29.007 78.1667 30.0569 79.083 30.7251C79.9993 31.3742 81.1734 31.6987 82.6052 31.6987C83.9224 31.6987 84.9055 31.4314 85.5546 30.8969C86.2228 30.3624 86.5569 29.6656 86.5569 28.8065Z" fill="#394149"/>
<path d="M112.787 23.9957L117.941 6.52811H128.279L115.651 42.6947L115.106 44.0119C113.312 48.0209 110.143 50.0254 105.599 50.0254C104.339 50.0254 103.013 49.8345 101.619 49.4527V42.5515H102.879C104.234 42.5515 105.265 42.3511 105.972 41.9502C106.697 41.5684 107.232 40.8716 107.575 39.8598L108.348 37.798L97.5815 6.52811H107.89L112.787 23.9957Z" fill="#394149"/>
<path d="M139.676 6.52811L139.991 10.1648C142.129 7.35854 145.078 5.9554 148.839 5.9554C152.065 5.9554 154.471 6.91946 156.055 8.84758C157.659 10.7757 158.489 13.6774 158.546 17.5528V37.5117H148.868V17.9537C148.868 16.3883 148.553 15.2428 147.923 14.5174C147.293 13.7729 146.147 13.4006 144.486 13.4006C142.596 13.4006 141.193 14.1451 140.277 15.6342V37.5117H130.627V6.52811H139.676Z" fill="#394149"/>
<path d="M177.016 30.6392C178.372 30.6392 179.422 30.2765 180.166 29.551C180.911 28.8065 181.273 27.7756 181.254 26.4584H190.303C190.303 29.8565 189.081 32.6437 186.638 34.82C184.213 36.9963 181.083 38.0844 177.245 38.0844C172.74 38.0844 169.189 36.6717 166.593 33.8464C163.997 31.021 162.699 27.1075 162.699 22.1058V21.7049C162.699 18.5741 163.271 15.8155 164.417 13.4293C165.581 11.0239 167.252 9.18166 169.428 7.90261C171.604 6.60447 174.181 5.9554 177.16 5.9554C181.188 5.9554 184.385 7.07218 186.752 9.30575C189.12 11.5393 190.303 14.5651 190.303 18.3832H181.254C181.254 16.7796 180.863 15.5483 180.08 14.6892C179.298 13.8302 178.248 13.4006 176.93 13.4006C174.43 13.4006 172.969 14.9947 172.549 18.1827C172.416 19.1945 172.349 20.5881 172.349 22.3635C172.349 25.4752 172.721 27.6325 173.466 28.8351C174.21 30.0378 175.394 30.6392 177.016 30.6392Z" fill="#394149"/>
<path d="M14.3177 30.6392C15.6732 30.6392 16.7231 30.2765 17.4676 29.551C18.2122 28.8065 18.5749 27.7756 18.5558 26.4584H27.6046C27.6046 29.8565 26.3828 32.6437 23.9393 34.82C21.5148 36.9963 18.384 38.0844 14.5468 38.0844C10.0415 38.0844 6.49071 36.6717 3.89442 33.8464C1.29814 31.021 0 27.1075 0 22.1058V21.7049C0 18.5741 0.57271 15.8155 1.71813 13.4293C2.88264 11.0239 4.55304 9.18166 6.72934 7.90261C8.90563 6.60447 11.4828 5.9554 14.4609 5.9554C18.489 5.9554 21.6866 7.07218 24.0538 9.30575C26.421 11.5393 27.6046 14.5651 27.6046 18.3832H18.5558C18.5558 16.7796 18.1644 15.5483 17.3817 14.6892C16.599 13.8302 15.5491 13.4006 14.2318 13.4006C11.731 13.4006 10.2706 14.9947 9.8506 18.1827C9.71697 19.1945 9.65016 20.5881 9.65016 22.3635C9.65016 25.4752 10.0224 27.6325 10.7669 28.8351C11.5115 30.0378 12.6951 30.6392 14.3177 30.6392Z" fill="#394149"/>
</svg>
